<mxfile host="app.diagrams.net" modified="2024-01-19T23:43:47.543Z" agent="Mozilla/5.0 (Windows NT 10.0; Win64; x64) AppleWebKit/537.36 (KHTML, like Gecko) Chrome/120.0.0.0 Safari/537.36" version="22.1.21" etag="FuBIhQaepp76dRUA5b9k" type="github">
  <diagram name="PÃ¡gina-1" id="PxZYrPaqiN6KwEoXF8KT">
    <mxGraphModel>
      <root>
        <mxCell id="0" />
        <mxCell id="1" parent="0" />
      </root>
    </mxGraphModel>
  </diagram>
</mxfile>
